name rise30.9205peak61.366fall85.3838.mot
datacolumns 19
datarows 18
range 9.17496800000000 9.20331100000000
endheader
time	ground_force1_vx	ground_force1_vy	ground_force1_vz	ground_force1_px	ground_force1_py	ground_force1_pz	ground_force2_vx	ground_force2_vy	ground_force2_vz	ground_force2_px	ground_force2_py	ground_force2_pz	ground_torque1_x	ground_torque1_y	ground_torque1_z	ground_torque2_x	ground_torque2_y	ground_torque2_z	
9.17496800000000	65.40508900000000	779.08114599999999	58.96962200000000	0.34756000000000	0.00000000000000	0.11872000000000	0.00000000000000	0.00000000000000	0.00000000000000	0.00000000000000	0.00000000000000	0.00000000000000	0.00000000000000	25.59273800000000	0.00000000000000	0.00000000000000	0.00000000000000	0.00000000000000	
9.17666000000000	64.81992000000000	781.54049599999996	59.00404800000000	0.34655800000000	0.00000000000000	0.11871400000000	0.00000000000000	0.00000000000000	0.00000000000000	0.00000000000000	0.00000000000000	0.00000000000000	0.00000000000000	25.60769400000000	0.00000000000000	0.00000000000000	0.00000000000000	0.00000000000000	
9.17829700000000	64.23803100000001	783.88950799999998	59.03555300000000	0.34558100000000	0.00000000000000	0.11870800000000	0.00000000000000	0.00000000000000	0.00000000000000	0.00000000000000	0.00000000000000	0.00000000000000	0.00000000000000	25.62196600000000	0.00000000000000	0.00000000000000	0.00000000000000	0.00000000000000	
9.17996600000000	63.65937900000000	786.12581799999998	59.06391300000000	0.34462700000000	0.00000000000000	0.11870200000000	0.00000000000000	0.00000000000000	0.00000000000000	0.00000000000000	0.00000000000000	0.00000000000000	0.00000000000000	25.63540000000000	0.00000000000000	0.00000000000000	0.00000000000000	0.00000000000000	
9.18163100000000	63.08386800000000	788.24718900000005	59.08884500000000	0.34369500000000	0.00000000000000	0.11869500000000	0.00000000000000	0.00000000000000	0.00000000000000	0.00000000000000	0.00000000000000	0.00000000000000	0.00000000000000	25.64780800000000	0.00000000000000	0.00000000000000	0.00000000000000	0.00000000000000	
9.18330400000000	62.51135100000000	790.25152400000002	59.11001300000000	0.34278500000000	0.00000000000000	0.11868800000000	0.00000000000000	0.00000000000000	0.00000000000000	0.00000000000000	0.00000000000000	0.00000000000000	0.00000000000000	25.65896300000000	0.00000000000000	0.00000000000000	0.00000000000000	0.00000000000000	
9.18496700000000	61.94163400000000	792.13687200000004	59.12703000000000	0.34189400000000	0.00000000000000	0.11868100000000	0.00000000000000	0.00000000000000	0.00000000000000	0.00000000000000	0.00000000000000	0.00000000000000	0.00000000000000	25.66860500000000	0.00000000000000	0.00000000000000	0.00000000000000	0.00000000000000	
9.18663000000000	61.37448000000000	793.90144799999996	59.13946800000000	0.34102200000000	0.00000000000000	0.11867300000000	0.00000000000000	0.00000000000000	0.00000000000000	0.00000000000000	0.00000000000000	0.00000000000000	0.00000000000000	25.67644500000000	0.00000000000000	0.00000000000000	0.00000000000000	0.00000000000000	
9.18829600000000	60.80962000000000	795.54363899999998	59.14685800000000	0.34016600000000	0.00000000000000	0.11866500000000	0.00000000000000	0.00000000000000	0.00000000000000	0.00000000000000	0.00000000000000	0.00000000000000	0.00000000000000	25.68216700000000	0.00000000000000	0.00000000000000	0.00000000000000	0.00000000000000	
9.18997100000000	60.24675100000000	797.06201499999997	59.14870100000000	0.33932400000000	0.00000000000000	0.11865600000000	0.00000000000000	0.00000000000000	0.00000000000000	0.00000000000000	0.00000000000000	0.00000000000000	0.00000000000000	25.68543400000000	0.00000000000000	0.00000000000000	0.00000000000000	0.00000000000000	
9.19163300000000	59.68554300000000	798.45533499999999	59.14446900000000	0.33849600000000	0.00000000000000	0.11864700000000	0.00000000000000	0.00000000000000	0.00000000000000	0.00000000000000	0.00000000000000	0.00000000000000	0.00000000000000	25.68588600000000	0.00000000000000	0.00000000000000	0.00000000000000	0.00000000000000	
9.19330400000000	59.12564800000000	799.72256200000004	59.13361600000000	0.33767900000000	0.00000000000000	0.11863700000000	0.00000000000000	0.00000000000000	0.00000000000000	0.00000000000000	0.00000000000000	0.00000000000000	0.00000000000000	25.68315100000000	0.00000000000000	0.00000000000000	0.00000000000000	0.00000000000000	
9.19497000000000	58.56670000000000	800.86286299999995	59.11557700000000	0.33687100000000	0.00000000000000	0.11862700000000	0.00000000000000	0.00000000000000	0.00000000000000	0.00000000000000	0.00000000000000	0.00000000000000	0.00000000000000	25.67684200000000	0.00000000000000	0.00000000000000	0.00000000000000	0.00000000000000	
9.19663000000000	58.00832100000000	801.87562000000003	59.08978300000000	0.33607100000000	0.00000000000000	0.11861700000000	0.00000000000000	0.00000000000000	0.00000000000000	0.00000000000000	0.00000000000000	0.00000000000000	0.00000000000000	25.66656500000000	0.00000000000000	0.00000000000000	0.00000000000000	0.00000000000000	
9.19830400000000	57.45012900000000	802.76043100000004	59.05566000000000	0.33527600000000	0.00000000000000	0.11860600000000	0.00000000000000	0.00000000000000	0.00000000000000	0.00000000000000	0.00000000000000	0.00000000000000	0.00000000000000	25.65192200000000	0.00000000000000	0.00000000000000	0.00000000000000	0.00000000000000	
9.19996900000000	56.89173500000000	803.51711799999998	59.01263800000000	0.33448600000000	0.00000000000000	0.11859500000000	0.00000000000000	0.00000000000000	0.00000000000000	0.00000000000000	0.00000000000000	0.00000000000000	0.00000000000000	25.63251400000000	0.00000000000000	0.00000000000000	0.00000000000000	0.00000000000000	
9.20163500000000	56.33275800000000	804.14572899999996	58.96015400000000	0.33369800000000	0.00000000000000	0.11858300000000	0.00000000000000	0.00000000000000	0.00000000000000	0.00000000000000	0.00000000000000	0.00000000000000	0.00000000000000	25.60794600000000	0.00000000000000	0.00000000000000	0.00000000000000	0.00000000000000	
9.20331100000000	55.77281900000000	804.64653899999996	58.89766300000000	0.33290900000000	0.00000000000000	0.11857100000000	0.00000000000000	0.00000000000000	0.00000000000000	0.00000000000000	0.00000000000000	0.00000000000000	0.00000000000000	25.57782800000000	0.00000000000000	0.00000000000000	0.00000000000000	0.00000000000000	
